<svg width="44" height="44" viewBox="0 0 44 44" fill="none" xmlns="http://www.w3.org/2000/svg">
<path d="M16.2193 32.7708C16.5695 32.384 17.224 31.9807 17.6878 31.746C17.4092 32.296 17.0168 32.8808 16.6905 33.198C16.0305 33.8452 15.6712 33.3722 16.2193 32.7708ZM29.1663 10.5912C32.9192 9.71483 37.9755 11.1045 40.3332 12.7527C37.5942 9.0915 30.7448 2.288 26.7078 0.135667C28.8272 2.277 29.5733 7.89983 29.1663 10.5912V10.5912ZM20.4232 29.3095C21.0245 29.1097 22.3225 28.8072 22.647 28.732C22.6103 28.6935 21.679 27.7347 21.3728 27.2067C21.1272 27.8208 20.4397 29.2728 20.4232 29.3095V29.3095ZM21.5965 21.9615C21.492 21.4518 21.1143 21.4133 20.9988 22.0055C20.8943 22.5482 21.052 23.419 21.2353 23.9507C21.4425 23.5162 21.7028 22.4748 21.5965 21.9615V21.9615ZM40.3332 20.1667V44H3.6665V0H19.083C27.9875 0 25.1972 14.6667 25.1972 14.6667C30.7137 13.3008 40.3332 13.8967 40.3332 20.1667ZM27.5365 28.2572C26.5722 28.116 25.2045 28.2737 24.242 28.4277C23.5362 27.8318 22.6543 26.9298 21.9815 25.729C22.4453 24.5337 22.7423 23.5877 22.867 22.913C23.516 19.3948 19.2388 19.1143 19.6972 22.891C19.8182 23.8975 20.1042 24.8747 20.5478 25.8023C20.0235 27.1022 19.3543 28.567 18.6815 29.8943C17.1947 30.4572 16.1222 31.0438 15.4878 31.6433C13.2658 33.7388 16.0287 36.5218 18.1242 33.5023C18.6265 32.7782 19.1893 31.7515 19.611 30.943C20.9255 30.4792 22.4545 30.0722 23.8827 29.81C24.8158 30.525 26.3063 31.4527 27.498 31.4527C29.7695 31.4545 30.0958 28.633 27.5365 28.2572V28.2572ZM27.3458 29.5478C26.9792 29.4928 26.4512 29.4928 25.826 29.5442C26.2568 29.8338 26.849 30.1363 27.4962 30.1492C28.2515 30.1638 28.1873 29.6725 27.3458 29.5478V29.5478Z" fill="white"/>
</svg>
