<svg width="40" height="40" viewBox="0 0 40 40" fill="none" xmlns="http://www.w3.org/2000/svg">
<path d="M19.9998 3.33333C25.5148 3.33333 29.9998 7.81833 29.9998 13.3333V26.6667C29.9998 32.1817 25.5148 36.6667 19.9998 36.6667C14.4848 36.6667 9.99984 32.1817 9.99984 26.6667V13.3333C9.99984 7.81833 14.4848 3.33333 19.9998 3.33333ZM19.9998 0C12.6365 0 6.6665 5.97 6.6665 13.3333V26.6667C6.6665 34.03 12.6365 40 19.9998 40C27.3632 40 33.3332 34.03 33.3332 26.6667V13.3333C33.3332 5.97 27.3632 0 19.9998 0ZM19.9998 15C18.6182 15 17.4998 13.88 17.4998 12.5C17.4998 11.12 18.6182 10 19.9998 10C21.3815 10 22.4998 11.12 22.4998 12.5C22.4998 13.88 21.3815 15 19.9998 15Z" fill="white"/>
</svg>
