<svg width="388" height="22" viewBox="0 0 388 22" fill="none" xmlns="http://www.w3.org/2000/svg">
<path fill-rule="evenodd" clip-rule="evenodd" d="M0 1V4.5698H9.50248V22H13.4707V4.5698H23V1H0Z" fill="#DED1B8"/>
<path fill-rule="evenodd" clip-rule="evenodd" d="M26.8236 10.4641V0.712158H30.9414V11.356C30.9414 16.1128 33.0003 18.3728 37.4666 18.3728C41.9034 18.3728 43.9919 16.1128 43.9919 11.356V0.712158H48.1097V10.4641C48.1097 19.3242 44.1079 21.9998 37.4666 21.9998C30.8254 21.9998 26.8236 19.3242 26.8236 10.4641Z" fill="#DED1B8"/>
<path fill-rule="evenodd" clip-rule="evenodd" d="M66.5813 9.24494C68.9882 9.24494 70.0031 8.35305 70.0031 6.83683C70.0031 4.99359 68.9592 4.19089 66.5813 4.19089H55.7063L55.7353 9.24494H66.5813ZM51.6465 0.711914H67.5963C71.8011 0.711914 74.1215 3.03083 74.1215 6.21251C74.1215 9.54224 71.5111 11.4449 67.5963 11.4449H65.4504C70.2351 11.772 72.2076 14.7449 75.6584 21.5239H70.8731C67.1033 14.5963 66.1173 12.6936 62.4925 12.6936H55.7353L55.7643 21.5239H51.6465V0.711914Z" fill="#DED1B8"/>
<mask id="mask0_44_13" style="mask-type:alpha" maskUnits="userSpaceOnUse" x="0" y="0" width="388" height="22">
<path d="M0 22H387.678V0.236084H0V22Z" fill="white"/>
</mask>
<g mask="url(#mask0_44_13)">
<path fill-rule="evenodd" clip-rule="evenodd" d="M78.557 21.5244H82.6747V0.712402H78.557V21.5244Z" fill="#DED1B8"/>
<path fill-rule="evenodd" clip-rule="evenodd" d="M98.4779 0.71228H102.596V17.9561H116.748V21.5243H98.4779V0.71228Z" fill="#DED1B8"/>
<path fill-rule="evenodd" clip-rule="evenodd" d="M174.542 0.71228L163.174 21.5243H157.316L145.977 0.71228H150.936L160.245 18.4621L169.554 0.71228H174.542Z" fill="#DED1B8"/>
<path fill-rule="evenodd" clip-rule="evenodd" d="M177.991 21.5244H182.108V0.712402H177.991V21.5244Z" fill="#DED1B8"/>
<path fill-rule="evenodd" clip-rule="evenodd" d="M186.487 0.71228H190.605V12.2777L203.945 0.71228H209.832L200.784 8.56152L210.529 21.5243H205.221L197.536 11.3264L190.605 17.1243V21.5243H186.487V0.71228Z" fill="#DED1B8"/>
<path fill-rule="evenodd" clip-rule="evenodd" d="M224.474 0.71228H228.593V12.2777L241.933 0.71228H247.819L238.771 8.56152L248.515 21.5243H243.209L235.523 11.3264L228.593 17.1243V21.5243H224.474V0.71228Z" fill="#DED1B8"/>
<path fill-rule="evenodd" clip-rule="evenodd" d="M251.588 21.5244H255.706V0.712402H251.588V21.5244Z" fill="#DED1B8"/>
<path fill-rule="evenodd" clip-rule="evenodd" d="M274.526 9.24494C276.933 9.24494 277.948 8.35305 277.948 6.83683C277.948 4.99359 276.904 4.19089 274.526 4.19089H263.651L263.68 9.24494H274.526ZM259.591 0.711914H275.541C279.746 0.711914 282.066 3.03083 282.066 6.21251C282.066 9.54224 279.456 11.4449 275.541 11.4449H273.395C278.18 11.772 280.152 14.7449 283.603 21.5239H278.818C275.048 14.5963 274.062 12.6936 270.437 12.6936H263.68L263.709 21.5239H259.591V0.711914Z" fill="#DED1B8"/>
<path fill-rule="evenodd" clip-rule="evenodd" d="M286.415 0.71228H290.533V12.2777L303.873 0.71228H309.76L300.711 8.56152L310.456 21.5243H305.149L297.464 11.3264L290.533 17.1243V21.5243H286.415V0.71228Z" fill="#DED1B8"/>
<path fill-rule="evenodd" clip-rule="evenodd" d="M313.528 0.71228H317.268L332.465 15.6967V0.71228H336.583V21.5243H332.813L317.646 6.53931V21.5243H313.528V0.71228Z" fill="#DED1B8"/>
<path fill-rule="evenodd" clip-rule="evenodd" d="M341.743 0.71228H360.884V4.25012H345.862V9.30477H360.623V12.6048H345.862V17.9561H360.884V21.5243H341.743V0.71228Z" fill="#DED1B8"/>
<path fill-rule="evenodd" clip-rule="evenodd" d="M364.971 14.8643H369.263C369.234 17.0346 371.873 18.4319 375.991 18.4319C380.805 18.4319 383.531 17.5102 383.531 15.4886C383.531 10.0475 365.551 16.3211 365.551 6.86641C365.551 2.61506 369.843 0.236084 376.136 0.236084C382.748 0.236084 387.215 3.03127 387.272 7.37181H382.951C382.98 5.17181 380.399 3.77452 376.397 3.77452C372.134 3.77452 369.698 4.72587 369.698 6.53938C369.698 11.7427 387.678 5.82587 387.678 15.34C387.678 19.5919 383.067 22 376.31 22C369.379 22 364.884 19.1157 364.971 14.8643Z" fill="#DED1B8"/>
<path fill-rule="evenodd" clip-rule="evenodd" d="M138.959 6.78099C139.835 7.9351 140.314 9.39542 140.314 11.118C140.314 15.7267 136.892 18.4321 131.585 18.4321C129.68 18.4321 128.021 18.0747 126.673 17.407L123.641 20.0297C125.725 21.2903 128.406 22.0002 131.585 22.0002C139.531 22.0002 144.432 17.6591 144.432 11.118C144.432 8.3632 143.553 6.00564 141.954 4.19153L138.959 6.78099Z" fill="#DED1B8"/>
<path fill-rule="evenodd" clip-rule="evenodd" d="M122.885 11.1181C122.885 6.51002 126.307 3.77429 131.585 3.77429C133.409 3.77429 135.002 4.10429 136.318 4.71494L139.37 2.09456C137.308 0.902991 134.682 0.23645 131.585 0.23645C123.668 0.23645 118.767 4.57699 118.767 11.1181C118.767 13.7629 119.58 16.0384 121.058 17.8222L124.086 15.2214C123.314 14.1083 122.885 12.733 122.885 11.1181Z" fill="#DED1B8"/>
<path fill-rule="evenodd" clip-rule="evenodd" d="M121.058 17.8225L116.748 21.5245H121.912L123.641 20.0296C122.633 19.4196 121.768 18.6793 121.058 17.8225Z" fill="#DED1B8"/>
<path fill-rule="evenodd" clip-rule="evenodd" d="M136.318 4.71533L124.086 15.2212C124.723 16.1375 125.595 16.8736 126.673 17.407L138.96 6.78095C138.297 5.90809 137.401 5.21776 136.318 4.71533Z" fill="#DED1B8"/>
<path fill-rule="evenodd" clip-rule="evenodd" d="M141.954 4.19148L145.977 0.711914H140.979L139.37 2.09494C140.37 2.67289 141.235 3.37629 141.954 4.19148Z" fill="#DED1B8"/>
</g>
</svg>
